<?xml version="1.0" encoding="UTF-8"?>
<svg xmlns="http://www.w3.org/2000/svg" xmlns:xlink="http://www.w3.org/1999/xlink" width="24px" height="24px" viewBox="0 0 24 24" version="1.1">
<g id="surface1">
<path style=" stroke:none;fill-rule:nonzero;fill:rgb(53.72549%,53.72549%,56.078431%);fill-opacity:1;" d="M 17.511719 11.160156 C 17.414062 11.109375 17.3125 11.066406 17.210938 11.019531 C 17.035156 7.746094 15.242188 5.867188 12.234375 5.847656 L 12.195312 5.847656 C 10.398438 5.847656 8.902344 6.617188 7.980469 8.011719 L 9.632812 9.148438 C 10.320312 8.105469 11.402344 7.882812 12.195312 7.882812 L 12.222656 7.882812 C 13.214844 7.886719 13.960938 8.175781 14.445312 8.738281 C 14.796875 9.144531 15.03125 9.710938 15.148438 10.421875 C 14.269531 10.273438 13.320312 10.226562 12.304688 10.285156 C 9.449219 10.449219 7.609375 12.117188 7.734375 14.433594 C 7.796875 15.609375 8.382812 16.621094 9.382812 17.28125 C 10.226562 17.839844 11.316406 18.113281 12.449219 18.050781 C 13.945312 17.96875 15.117188 17.398438 15.933594 16.355469 C 16.554688 15.5625 16.949219 14.535156 17.121094 13.242188 C 17.835938 13.671875 18.363281 14.238281 18.65625 14.917969 C 19.152344 16.074219 19.179688 17.976562 17.628906 19.523438 C 16.269531 20.882812 14.636719 21.46875 12.171875 21.488281 C 9.433594 21.464844 7.363281 20.589844 6.015625 18.878906 C 4.757812 17.277344 4.105469 14.960938 4.082031 12 C 4.105469 9.039062 4.757812 6.722656 6.015625 5.121094 C 7.363281 3.410156 9.433594 2.53125 12.171875 2.511719 C 14.925781 2.53125 17.035156 3.414062 18.429688 5.132812 C 19.117188 5.976562 19.632812 7.039062 19.972656 8.273438 L 21.910156 7.757812 C 21.5 6.234375 20.847656 4.925781 19.964844 3.835938 C 18.171875 1.632812 15.554688 0.503906 12.175781 0.480469 L 12.164062 0.480469 C 8.792969 0.503906 6.203125 1.636719 4.464844 3.847656 C 2.914062 5.816406 2.117188 8.558594 2.089844 11.992188 L 2.089844 12.007812 C 2.117188 15.441406 2.914062 18.183594 4.464844 20.152344 C 6.203125 22.363281 8.792969 23.496094 12.164062 23.519531 L 12.175781 23.519531 C 15.171875 23.5 17.285156 22.714844 19.023438 20.976562 C 21.300781 18.703125 21.230469 15.855469 20.480469 14.105469 C 19.941406 12.851562 18.917969 11.832031 17.511719 11.160156 Z M 12.34375 16.019531 C 11.089844 16.089844 9.789062 15.527344 9.722656 14.324219 C 9.675781 13.429688 10.359375 12.433594 12.417969 12.316406 C 12.648438 12.304688 12.882812 12.296875 13.113281 12.296875 C 13.863281 12.296875 14.5625 12.367188 15.199219 12.507812 C 14.960938 15.472656 13.570312 15.953125 12.34375 16.019531 Z M 12.34375 16.019531 "/>
</g>
</svg>
