<?xml version="1.0" encoding="UTF-8"?>
<svg xmlns="http://www.w3.org/2000/svg" xmlns:xlink="http://www.w3.org/1999/xlink" width="24px" height="24px" viewBox="0 0 24 24" version="1.1">
<g id="surface1">
<path style=" stroke:none;fill-rule:nonzero;fill:rgb(53.72549%,53.72549%,56.078431%);fill-opacity:1;" d="M 16.210938 8.710938 C 14.273438 8.808594 12.589844 9.398438 11.226562 10.722656 C 9.84375 12.0625 9.214844 13.703125 9.386719 15.734375 C 8.628906 15.640625 7.941406 15.539062 7.25 15.480469 C 7.007812 15.460938 6.726562 15.488281 6.523438 15.601562 C 5.851562 15.984375 5.207031 16.410156 4.441406 16.890625 C 4.582031 16.253906 4.671875 15.699219 4.832031 15.164062 C 4.949219 14.773438 4.894531 14.554688 4.535156 14.296875 C 2.210938 12.65625 1.230469 10.203125 1.964844 7.675781 C 2.640625 5.339844 4.308594 3.921875 6.570312 3.183594 C 9.65625 2.175781 13.128906 3.203125 15.003906 5.652344 C 15.683594 6.539062 16.097656 7.535156 16.210938 8.710938 Z M 7.304688 7.921875 C 7.320312 7.460938 6.921875 7.042969 6.445312 7.027344 C 5.957031 7.015625 5.558594 7.386719 5.542969 7.867188 C 5.527344 8.351562 5.902344 8.742188 6.390625 8.757812 C 6.878906 8.769531 7.285156 8.394531 7.304688 7.921875 Z M 11.949219 7.027344 C 11.472656 7.039062 11.070312 7.445312 11.078125 7.90625 C 11.085938 8.390625 11.480469 8.765625 11.972656 8.761719 C 12.464844 8.753906 12.839844 8.375 12.832031 7.882812 C 12.832031 7.652344 12.738281 7.429688 12.570312 7.269531 C 12.40625 7.109375 12.179688 7.023438 11.949219 7.027344 Z M 11.949219 7.027344 "/>
<path style=" stroke:none;fill-rule:nonzero;fill:rgb(53.72549%,53.72549%,56.078431%);fill-opacity:1;" d="M 20.558594 20.773438 C 19.945312 20.5 19.382812 20.089844 18.785156 20.027344 C 18.1875 19.964844 17.5625 20.308594 16.9375 20.375 C 15.035156 20.570312 13.335938 20.039062 11.933594 18.742188 C 9.261719 16.273438 9.644531 12.488281 12.730469 10.464844 C 15.476562 8.664062 19.5 9.265625 21.4375 11.761719 C 23.125 13.9375 22.925781 16.828125 20.867188 18.65625 C 20.269531 19.183594 20.054688 19.621094 20.4375 20.316406 C 20.507812 20.449219 20.515625 20.609375 20.554688 20.773438 Z M 13.582031 14.019531 C 13.972656 14.019531 14.292969 13.714844 14.308594 13.328125 C 14.316406 13.132812 14.242188 12.941406 14.105469 12.800781 C 13.96875 12.660156 13.78125 12.578125 13.585938 12.578125 C 13.183594 12.574219 12.84375 12.921875 12.859375 13.324219 C 12.871094 13.707031 13.195312 14.019531 13.582031 14.019531 Z M 18.078125 12.578125 C 17.699219 12.578125 17.378906 12.886719 17.363281 13.269531 C 17.351562 13.464844 17.421875 13.652344 17.554688 13.792969 C 17.691406 13.933594 17.875 14.015625 18.070312 14.015625 C 18.453125 14.023438 18.773438 13.714844 18.785156 13.332031 C 18.800781 12.921875 18.480469 12.582031 18.078125 12.578125 Z M 18.078125 12.578125 "/>
</g>
</svg>
